# xmcd CD database file
#
# Track frame offsets:
#	150
#	23998
#	43572
#	55922
#	74260
#	88424
#	101123
#	121714
#	141193
#	158722
#	181561
#
# Disc length: 2597 seconds
#
# Revision: 1
# Processed by: cddbd v1.5PL3 Copyright (c) Steve Scherf et al.
# Submitted via: CDex 1.51
#
DISCID=8f0a230b
DTITLE=Hallbjörn Hjartarson - Kúrekinn
DYEAR=2002
DGENRE=Country
TTITLE0=K.K. and Magnús Eiríksson - Lukku Láki
TTITLE1=Magga Stína - Sveitadrengurinn
TTITLE2=Hreimur Örn Heimisson - Sannur vinur
TTITLE3=Helgi Björnsson - Ástarjátning
TTITLE4=Þorgeir Guðmundsson - Kúreki norðursins
TTITLE5=Gunnar Ólason - Hvar ertu vina
TTITLE6=Helgi Björnsson - Donni sjómaður
TTITLE7=K.K. - Horfinn vinur
TTITLE8=Einar Ágúst Víðisson - Hann er vinsæll
TTITLE9=Margrét Eir - Bænin
TTITLE10=Dr. Gunni - Hundurinn Húgó
EXTD=YEAR: 2002
EXTT0=
EXTT1=
EXTT2=
EXTT3=
EXTT4=
EXTT5=
EXTT6=
EXTT7=
EXTT8=
EXTT9=
EXTT10=
PLAYORDER=
